<svg width="1000" height="750" viewBox="0 0 1000 750" fill="none" xmlns="http://www.w3.org/2000/svg">
<path d="M573.409 263.895C589.898 261.264 602.877 259.927 619.532 258.988C619.6 264.204 619.61 269.421 619.566 274.637C572.315 277.485 525.948 287.996 482.534 305.704C477.311 307.8 461.81 314.227 457.512 316.91C467.044 320.561 479.389 324.299 489.488 327.819C526.236 312.92 580.396 300.734 619.63 300.083C619.639 303.378 620.074 313.244 618.702 315.528C611.553 316.511 604.395 316.555 597.183 317.452C571.651 320.63 536.138 327.143 512.642 336.849C521.358 341.469 530.919 345.024 539.752 349.495C541.69 350.477 543.878 351.525 545.909 352.284C562.383 348.687 579.088 344.959 595.953 343.436C599.576 343.11 616.485 341.005 619.053 342.498C619.971 345.301 619.59 354.555 619.542 357.912C602.628 358.837 584.644 360.011 568.052 363.579C578.814 370.31 590.049 376.558 600.777 383.384C606.705 387.156 612.383 390.351 617.808 394.807C613.702 394.859 591.768 395.477 589.459 394.432C576.949 388.761 562.569 379.155 550.001 372.68C520.001 357.225 490.801 344.386 458.329 334.083C437.195 327.316 415.467 322.305 393.396 319.106C387.597 318.293 381.774 317.638 375.934 317.142C371.723 316.773 365.503 316.521 361.646 315.452C360.389 313.566 360.812 303.043 360.888 300.123C385.583 301.113 408.756 304.943 432.737 310.269C443.86 305.139 454.376 300.106 465.715 295.38C442.697 286.714 412.812 280.643 388.296 277.153C379.245 275.865 369.145 275.761 360.932 274.535C360.703 269.67 360.647 263.861 360.929 258.988C374.678 259.923 400.947 262.193 414.538 265.484C416.242 265.659 417.306 265.792 418.974 266.147C421.919 267.097 424.957 267.693 427.994 268.312C436.69 270.086 445.242 272.32 453.757 274.751C460.452 276.684 467.092 278.784 473.668 281.047C475.629 281.707 482.233 284.089 483.937 284.441C488.692 286.316 488.648 286.05 493.731 284.431C509.483 278.952 525.504 274.184 541.739 270.141C549.327 268.324 560.548 266.689 567.115 264.936C569.288 264.385 571.192 264.178 573.409 263.895Z" fill="#015339"/>
<path d="M475.413 122.887C475.2 119.798 474.999 116.354 475.816 113.371C484.887 80.2096 502.206 100.017 501.889 123.122C506.938 120.806 519.199 114.679 522.885 121.704C524.98 125.694 523.315 133.902 521.645 137.993C518.539 145.466 512.397 151.478 504.565 154.707C500.546 156.347 497.573 156.714 493.232 157.222C493.246 165.49 493.154 173.953 493.549 182.199C499.462 177.825 522.729 163.114 523.53 179.27C524.418 197.304 511.562 208.224 493.246 210.866C493.251 218.315 492.958 228.452 493.52 235.717C504.018 227.673 528.212 216.59 523.168 240.231C521.503 248.121 516.547 255.062 509.404 259.515C504.252 262.696 499.35 263.782 493.364 264.686C493.271 269.804 492.968 279.424 493.73 284.431C488.647 286.05 488.691 286.315 483.935 284.441C484.037 277.859 484.09 271.276 484.095 264.693C465.604 262.12 453.107 251.467 453.659 232.516C453.828 226.73 460.162 224.897 465.212 226.318C472.51 227.999 478.618 231.336 483.929 236.25C484.467 227.721 483.986 219.141 484.128 210.683C468.377 209.359 455.723 199.606 453.788 184.815C450.762 161.682 475.056 175.28 483.968 182.655C484.632 175.605 484.299 164.407 484.195 157.118C465.188 155.825 452.765 143.166 453.4 124.832C453.786 113.687 469.466 120.015 475.413 122.887ZM484.12 149.434C482.897 136.69 475.627 130.642 462.794 127.475C464.298 141.198 470.165 146.047 484.12 149.434ZM484.311 202.756C482.48 190.976 475.863 183.262 462.873 181.283C463.731 193.948 471.43 200.285 484.311 202.756ZM513.412 181.218C502.275 184.446 495.043 190.259 493.29 201.361C493.749 202.391 493.378 202.098 494.189 202.592C501.425 200.724 507.714 197.503 511.581 191.195C513.368 188.294 514.286 184.992 514.233 181.642C514.037 181.53 513.603 181.248 513.412 181.218ZM462.716 235.022C464.693 246.656 470.894 254.995 484.228 256.543C482.998 249.114 481.112 244.076 474.252 239.392C470.841 237.083 466.882 235.583 462.716 235.022ZM513.241 127.694C504.75 129.884 491.406 139.4 493.534 148.569L494.169 149.008C504.936 146.626 514.628 139.283 514.252 128.094C513.798 127.862 513.7 127.734 513.241 127.694ZM488.613 133.488C493.066 126.609 493.657 121.419 491.948 113.322C491.581 111.59 489.838 107.247 488.554 106.038C482.873 115.176 482.382 124.552 488.613 133.488ZM512.646 235.235C501.752 238.425 494.54 244.485 493.437 255.41L493.91 256.2L495.346 256.293C506.86 252.465 513.085 247.294 514.462 235.626L513.969 235.16L512.646 235.235Z" fill="#EEB33F"/>
<path d="M336.825 449.471C342.007 449.296 348.329 449.543 353.587 449.623C367.285 449.831 382.16 448.07 394.454 454.782C409.447 462.968 411.013 485.455 402.719 498.304C397.668 506.028 390.002 508.774 380.878 510.558C373.139 511.597 365.032 511.217 357.134 511.496C356.598 519.33 357.199 527.32 356.612 535.355C350.005 535.516 343.394 535.502 336.788 535.31C336.082 515.587 337.174 495.252 336.701 475.461C336.5 467.091 336.31 457.747 336.825 449.471ZM357.143 494.204C365.222 494.808 375.87 495.705 382.662 491.005C384.338 488.914 385.878 487.116 386.36 484.512C390.163 463.998 369.69 466.391 356.894 466.762C356.856 475.731 356.633 485.294 357.143 494.204Z" fill="#015339"/>
<path d="M721.752 449.51C727.025 449.306 733.52 449.562 739.149 449.406C740.78 451.769 743.651 458.452 744.96 461.289L755.248 483.707L769.916 515.684C772.509 521.33 776.63 529.622 778.534 535.324C749.457 536.028 760.399 537.204 748.095 516.626C744.804 516.397 741.576 516.333 738.285 516.246C729.569 516.265 720.028 516.095 711.395 516.663C708.368 522.859 705.727 529.196 702.538 535.301C696.537 535.617 686.835 535.543 680.902 535.26C682.831 529.228 687.533 520.351 690.297 514.343L707.611 476.911C711.537 468.537 715.321 459.656 719.389 451.341C719.877 450.344 720.736 449.933 721.752 449.51ZM719.149 499.055C722.948 499.091 726.923 499.187 730.707 499.151C734.071 499.068 736.835 499.023 740.185 499.192C738.803 495.801 731.928 478.994 729.643 477.049C726.571 482.082 721.747 493.321 719.149 499.055Z" fill="#015339"/>
<path d="M214.171 449.495C223.342 449.942 233.203 449.425 242.432 449.45C254.856 449.484 267.323 449.849 279.734 449.53C279.828 455.233 279.793 460.937 279.628 466.639C265.066 467.032 249.097 466.716 234.399 466.762L234.361 483.309C245.924 484.014 263.156 483.629 275.236 483.693C275.406 488.48 275.625 496.007 275.073 500.647L238.158 500.702C236.673 500.743 235.697 500.588 234.562 501.43C234.021 505.356 234.278 513.561 234.295 517.835C247.982 518.562 266.809 517.986 280.983 517.99C281.06 523.856 281.139 529.503 280.943 535.37C258.64 535.511 236.335 535.507 214.031 535.36C213.273 520.283 214.123 501.851 213.877 486.453C213.738 477.781 213.377 457.461 214.171 449.495Z" fill="#015339"/>
<path d="M461.095 449.387C481.767 450.593 505.909 448.726 526.807 449.656C527.1 455.273 526.944 461.152 526.89 466.798C512.95 466.359 495.504 466.606 481.536 466.853C481.429 472.372 481.401 477.886 481.454 483.405C492.862 483.935 510.46 483.661 521.886 483.414C521.988 489.138 522.027 494.867 521.988 500.592C511.368 501.178 495.738 500.697 484.747 500.674C483.333 500.702 483.424 500.656 482.203 501.315C480.667 503.983 481.397 514.306 481.457 517.88C495.997 518.47 512.667 517.825 527.535 518.049C527.95 522.712 527.843 530.651 527.598 535.346C513.209 535.882 498.35 535.205 483.916 535.465C476.409 535.603 468.385 535.571 460.913 535.264L460.856 480.636C460.847 471.008 460.492 458.818 461.095 449.387Z" fill="#015339"/>
<path d="M868.452 447.743C877.007 447.877 885.147 448.759 892.759 452.801C896.289 454.673 903.98 459.55 905.82 462.904C905.527 465.379 896.123 474.367 893.745 476.856C887.671 471.667 884.243 468.061 875.586 466.615C849.487 462.259 833.95 489.184 848.701 508.549C857.368 519.925 874.741 520.483 886.343 512.85C888.345 511.533 890.386 509.158 892.588 507.565C894.277 507.657 893.75 507.638 895.337 508.997C899.341 512.699 902.49 515.857 906.226 519.806C888.413 539.432 859.326 542.494 837.749 525.64C828.179 517.815 822.383 505.95 821.963 494.107C821.025 467.823 841.27 449.104 868.452 447.743Z" fill="#015339"/>
<path d="M341.801 584.415C360.281 581.802 377.522 593.727 380.301 611.047C383.081 628.367 370.347 644.52 351.864 647.115C333.395 649.709 316.178 637.784 313.4 620.478C310.623 603.172 323.336 587.028 341.801 584.415ZM348.388 636.53C360.628 635.716 369.823 625.727 368.89 614.259C367.957 602.796 357.252 594.226 345.022 595.159C332.878 596.084 323.816 606.032 324.742 617.417C325.669 628.802 336.236 637.345 348.388 636.53Z" fill="#EEB33F"/>
<path d="M360.891 341.812C374.768 342.839 385.299 343.225 399.448 345.541C441.754 352.466 482.144 365.009 520.493 383.138C526.699 386.071 538.838 390.909 543.599 394.759C534.107 395.187 517.549 395.15 508.081 394.565C505.161 394.384 489.121 387.075 484.487 385.325C469.588 379.55 454.371 374.523 438.901 370.265C411.919 362.693 388.499 359.976 360.857 357.936C360.717 352.611 360.836 347.15 360.891 341.812Z" fill="#015339"/>
<path d="M611.587 481.497C617.569 471.599 623.638 459.175 630.958 450.18C632.042 448.85 649.712 449.546 652.261 449.84C650.87 453.487 646.739 459.83 644.522 463.467L630.928 485.752C629.229 488.42 622.916 498.085 622.364 500.345C620.167 509.318 621.158 525.806 621.221 535.401C614.512 535.488 607.798 535.47 601.089 535.351C600.582 525.051 602.32 510.366 600.215 500.556C598.521 492.689 571.461 455.019 571.602 450.323C573.155 449.348 573.682 449.645 575.757 449.562C580.655 449.767 587.178 448.62 591.802 449.926C594.722 450.752 608.921 477.031 611.587 481.497Z" fill="#015339"/>
<path d="M562.11 166.593C562.579 146.341 577.838 145.251 578.277 166.796C592.35 161.151 594.869 168.172 588.297 179.471C585.26 184.692 579.195 186.849 573.155 188.043C573.106 192.812 573.15 197.58 573.282 202.347C586.241 193.4 597.247 194.852 588.321 211.944C585.724 216.916 578.77 219.527 573.072 220.717C573.155 225.555 573.131 230.475 573.16 235.321C586.593 224.854 597.52 228.994 587.799 245.016C584.874 249.829 578.941 252.034 573.199 253.064C573.131 256.675 573.204 260.288 573.409 263.895C571.192 264.178 569.288 264.385 567.115 264.936C567.315 261.334 567.252 257.103 567.296 253.452C557.97 251.489 549.869 246.552 549.054 237.171C547.877 223.703 562.101 231.315 567.369 235.736C567.306 230.748 567.296 225.76 567.34 220.772C563.331 220.127 560.382 219.439 557.013 217.189C552.769 214.351 549.923 210.032 549.117 205.205C546.725 191.238 561.163 198.113 567.35 202.866L567.31 188.145C560.636 186.917 553.712 184.267 550.973 178.163C545.724 166.474 549.737 161.76 562.11 166.593ZM567.838 182.911C565.396 175.182 563.443 171.94 554.493 170.093C555.401 177.771 559.298 182.101 567.838 182.911ZM554.806 235.11C554.669 243.461 560.123 246.364 567.652 248.339C565.67 240.075 563.531 237.761 554.806 235.11ZM570.567 172.747C572.818 168.788 574.542 160.327 570.118 157.251C567.628 161.581 565.865 169.254 570.567 172.747ZM585.338 202.297C579.928 203.783 571.383 209.544 573.473 215.484C579.2 213.943 587.564 208.875 585.338 202.297ZM584.493 235.158C579.547 236.714 572.955 241.671 573.15 246.949C573.853 247.822 573.394 247.573 574.391 247.913C579.049 246.271 587.301 240.824 585.484 235.516L584.493 235.158ZM554.62 202.471C555.641 210.6 558.678 213.886 567.452 215.634C566.28 207.811 562.638 204.561 554.62 202.471ZM584.166 170.149C579.879 171.694 571.91 177.512 573.292 182.243C574.151 182.632 574.083 182.64 575.03 182.558C579.601 181.094 586.827 175.842 585.748 170.852C584.81 170.061 585.338 170.258 584.166 170.149Z" fill="#EEB33F"/>
<path d="M93.6177 449.52C99.063 449.208 108.675 449.601 114.477 449.592C129.91 449.529 145.345 449.544 160.778 449.637C160.665 455.308 160.926 460.974 160.783 466.717C152.578 466.602 144.372 466.634 136.168 466.813C135.437 481.593 135.802 497.696 135.822 512.586L135.8 535.448C129.088 535.507 122.375 535.466 115.665 535.324C115.307 514.215 116.681 487.533 115.317 466.904C107.383 466.373 99.4028 466.955 91.3515 466.561C91.3447 462.301 90.7041 454.759 91.7456 450.531C91.9121 449.856 92.706 449.818 93.6177 449.52Z" fill="#015339"/>
<path d="M191.443 584.496C205.139 583.146 215.203 587.502 223.565 597.464C221.043 599.812 217.886 602.392 215.234 604.676C211.97 601.381 209.424 598.956 205.03 596.938C193.776 591.772 181.285 596.636 176.306 607.243C173.703 612.789 173.592 619.086 175.999 624.714C178.037 629.441 182.055 633.18 187.114 635.056C198.927 639.476 209.044 634.841 213.616 623.927C209.502 623.506 202.364 623.803 197.766 623.657C197.039 622.742 197.27 621.506 197.232 620.156L197.246 613.64C206.836 613.581 216.425 613.585 226.014 613.658C226.275 620.834 225.552 627.821 221.452 634.031C217.405 640.295 210.796 644.734 203.164 646.308C158.382 655.771 143.953 592.636 191.443 584.496Z" fill="#EEB33F"/>
<path d="M250.969 585.669C259.538 585.55 269.758 584.767 277.851 587.417C290.33 591.494 292.431 607.478 284.07 616.021C281.362 618.785 279.505 619.517 275.886 620.908C282.464 629.291 288.962 637.725 295.379 646.218C291.048 646.08 286.479 646.195 282.128 646.236C279.511 645.49 265.707 625.832 262.767 622.189C262.995 629.822 262.813 638.461 262.802 646.14L251.047 646.199L250.969 585.669ZM262.959 612.333C267.601 612.351 271.429 612.246 275.517 609.871C281.984 598.911 272.888 595.978 262.826 596.244C262.842 601.323 262.703 607.327 262.959 612.333Z" fill="#EEB33F"/>
<path d="M752.011 585.64C756.049 585.526 762.353 585.952 766.034 585.586C791.064 583.115 799.975 611.76 776.737 620.894C783.315 629.263 789.819 637.683 796.244 646.153C791.923 646.107 787.465 646.176 783.129 646.194C780.683 645.526 766.581 625.611 763.954 622.207C763.471 629.666 763.73 638.612 763.749 646.185C759.872 646.13 755.873 646.19 751.982 646.199C751.83 626.014 751.84 605.825 752.011 585.64ZM763.94 612.327C768.295 612.341 772.446 612.259 776.21 609.889C778.998 606.063 780.058 601.057 775.287 598.147C771.528 595.859 768.002 596.142 763.71 596.216C763.735 601.199 763.598 607.45 763.94 612.327Z" fill="#EEB33F"/>
<path d="M881.162 581.562C883.477 583.795 910 640.578 912.485 646.175L899.575 646.161C897.432 641.43 895.161 636.657 893.423 631.793C889.038 631.706 884.346 631.779 879.937 631.779C876.309 631.651 872.148 631.779 868.481 631.815C866.538 636.396 863.887 641.581 861.68 646.12L849.014 646.138C852.637 638.08 857.622 628.672 861.587 620.623C867.891 607.508 874.419 594.485 881.162 581.562ZM873.555 621.506L882.183 621.51L888.423 621.469C887.222 618.879 882.417 607.714 881.016 606.268C878.584 611.173 875.771 616.559 873.555 621.506Z" fill="#EEB33F"/>
<path d="M699.947 581.811C702.442 583.445 728.717 639.39 731.5 646.158L719.049 646.195C716.7 641.44 714.435 636.649 712.252 631.826L700.025 631.89H687.237C685.484 636.311 682.633 641.756 680.479 646.14L668.219 646.103C677.687 625.219 689.566 602.43 699.947 581.811ZM692.34 621.402L699.654 621.535L707.633 621.444C706.402 618.922 701.148 607.354 700.23 606.109C697.169 610.919 695.221 616.364 692.34 621.402Z" fill="#EEB33F"/>
<path d="M117.35 581.462C119.688 584.048 146.3 640.423 148.367 646.189L136.229 646.185C133.688 641.531 131.468 636.726 129.581 631.802L117.798 631.825L104.505 631.871C102.783 636.804 100.291 641.485 97.854 646.134L85.252 646.198C93.3472 629.125 102.071 612.268 110.335 595.259C112.578 590.642 114.855 585.956 117.35 581.462ZM109.649 621.502C112.668 621.52 115.764 621.57 118.774 621.506L124.779 621.488C123.554 618.967 118.572 607.774 116.985 606.538C114.529 611.522 112.227 616.583 109.649 621.502Z" fill="#EEB33F"/>
<path d="M602.442 585.727C606.338 585.626 610.235 585.562 614.131 585.539C613.75 592.005 613.741 600.425 614.004 606.881C614.41 617.008 610.425 636.337 626.231 636.621C641.768 636.9 639.165 620.751 639.165 610.963L639.136 585.644L650.855 585.631L650.899 596.613C650.865 605.861 651.075 615.141 650.972 624.394C650.987 630.772 648.98 636.762 643.833 641.174C634.209 649.415 616.719 649.365 608.018 639.92C605.733 637.43 604.117 634.461 603.306 631.262C601.626 624.686 601.89 593.227 602.442 585.727Z" fill="#EEB33F"/>
<path d="M405.429 585.705C421.056 585.197 442.987 583.371 443.697 603.346C444.26 619.183 430.994 622.13 417.595 622.469C416.869 624.377 417.101 643.042 417.075 646.177L405.457 646.195C405.292 626.029 405.283 605.867 405.429 585.705ZM417.397 612.365C421.773 612.173 425.963 612.255 429.689 609.866C431.366 607.963 431.523 606.887 432.153 604.471C430.132 595.562 426.181 595.965 417.326 596.234C417.199 601.584 417.091 607.02 417.397 612.365Z" fill="#EEB33F"/>
<path d="M466.393 585.654C478.386 585.407 491.651 585.608 503.682 585.654C503.57 589.013 503.765 592.879 503.853 596.27C495.327 595.982 486.967 596.151 478.441 596.27C478.183 600.718 478.253 603.354 478.529 607.738L502.954 607.733C503.325 611.375 503.106 614.926 502.974 618.578C498.657 618.564 481.616 618.317 478.723 618.949L478.311 619.928C478.261 625.158 478.111 630.489 478.492 635.697C484.476 635.17 497.11 635.587 503.662 635.651L503.545 646.171C491.343 645.997 478.712 646.167 466.476 646.18C466.326 626.005 466.298 605.829 466.393 585.654Z" fill="#EEB33F"/>
<path d="M555.46 584.501C561.09 583.696 572.325 585.165 576.91 588.588C578.878 590.057 578.175 599.845 578.136 602.48C570.274 596.632 558.834 591.892 549.688 597.387C525.001 612.209 543.985 648.313 572.623 632.746L578.009 629.291C578.165 633.345 578.062 638.036 578.057 642.136C566.739 648.954 550.841 648.876 539.81 641.513C532.843 636.795 528.155 629.675 526.778 621.722C525.216 612.726 527.589 603.524 533.36 596.188C538.902 589.155 546.422 585.824 555.46 584.501Z" fill="#EEB33F"/>
<path d="M411.053 196.153C411.654 192.475 412.211 186.903 417.156 186.36C421.948 187.5 422.223 192.835 422.441 196.673C425.484 195.56 426.921 194.596 429.839 195.724C430.909 196.833 431.589 197.438 431.366 199.102C430.393 206.35 425.544 209.557 418.833 211.311L418.93 220.24C421.916 218.845 430.07 214.837 431.076 219.553C432.69 227.111 424.563 231.785 418.833 233.191L418.907 242.275C421.787 240.961 429.811 237.141 430.867 241.395C432.754 249 424.247 253.634 418.866 255.426C418.93 258.926 419.072 262.666 418.973 266.146C417.306 265.792 416.241 265.659 414.537 265.483L414.56 255.173C398.936 252.522 396.587 232.545 414.644 242.511L414.582 233.096C410.127 232.395 407.222 230.975 404.429 227.578C402.471 225.197 400.251 219.561 403.994 217.738C406.998 216.274 412.2 219.13 414.739 220.595C414.694 217.458 414.596 214.197 414.64 211.07C399.858 208.755 398.196 192.85 407.978 195.294C409.01 195.559 410.035 195.845 411.053 196.153ZM415.067 207.649C413.488 202.377 412.05 200.188 405.979 198.726C406.645 204.1 409.152 206.875 415.067 207.649ZM419.586 207.565C423.379 206.197 427.089 203.672 426.922 199.495L426.62 199.037C422.791 200.355 418.868 202.601 419.088 206.924L419.586 207.565ZM406.317 221.278C407.554 226.276 408.883 228.613 414.758 229.124C413.686 223.796 411.795 222.393 406.317 221.278ZM420.111 251.512C423.089 250.319 427.768 246.927 426.571 243.525L425.923 243.323C422.944 244.592 417.936 247.598 419.226 251.16L420.111 251.512ZM420.208 229.352C423.044 228.073 427.66 224.86 426.446 221.568L425.473 221.318C422.787 222.57 417.465 225.722 419.333 229.049L420.208 229.352ZM415.017 251.501C413.16 246.788 412.295 244.186 406.322 243.548C407.845 248.604 409.018 250.546 415.017 251.501Z" fill="#EEB33F"/>
<path d="M817.686 585.71L829.557 585.559C828.805 604.426 829.381 626.843 829.268 646.076C826.295 646.259 820.885 646.154 817.76 646.177C817.203 637.629 817.457 627.717 817.452 619.092C817.447 608.082 817.271 596.67 817.686 585.71Z" fill="#EEB33F"/>
<path d="M936.514 632.083C944.018 631.159 950.908 636.096 951.924 643.125C952.939 650.154 947.7 656.633 940.205 657.612C932.666 658.596 925.708 653.654 924.687 646.584C923.662 639.514 928.965 633.017 936.514 632.083ZM940.181 655.713C946.611 654.757 950.981 649.074 949.912 643.052C948.848 637.034 942.759 632.975 936.343 634.014C929.985 635.044 925.703 640.686 926.758 646.653C927.812 652.62 933.809 656.665 940.181 655.713Z" fill="#EEB33F"/>
<path d="M942.74 646.286C942.32 647.558 944.703 649.709 944.542 652.093L943.634 652.459C940.723 651.311 942.247 649.471 938.858 646.84C937.12 646.401 937.891 646.291 936.446 646.936C934.678 649.576 936.539 650.46 934.176 652.656L933.35 652.459C932.569 650.757 932.877 640.301 933.062 637.889C934.21 637.134 935.958 637.358 937.618 637.294C944.273 637.441 948.243 641.193 942.74 646.286ZM935.582 645.064C937.403 644.913 940.054 644.772 941.778 644.447C942.579 642.415 942.979 641.605 941.568 639.779C939.835 638.782 938.526 638.882 936.475 638.74L935.606 639.28C935.181 641.353 935.416 642.982 935.582 645.064Z" fill="#EEB33F"/>
</svg>
