<svg width="995" height="312" viewBox="0 0 995 312" fill="none" xmlns="http://www.w3.org/2000/svg">
<path d="M174.022 136.564C200.129 147.218 220.517 124.107 227.426 101.353C238.331 119.071 235.653 128.465 224.279 144.257L224.621 144.763C228.052 145.3 231.087 139.834 234.164 141.705C234.534 142.965 234.053 144.394 233.375 145.484C227.119 155.534 217.45 160.384 205.948 161.281C210.205 164.807 214.365 167.522 219.136 170.325C208.623 175.512 200.262 176.879 188.817 173.516C190.367 180.473 191.244 184.779 197.116 189.466C187.043 191.726 182.506 188.704 174.52 182.857C172.304 186.578 168.827 192.111 167.383 195.962C168.47 199.407 169.001 200.652 170.618 203.857C163.708 203.932 156.398 203.884 149.523 204.08C150.916 200.877 151.701 199.15 152.537 195.706C149.829 191.353 147.542 187.292 145.067 182.798C139.146 187.103 132.189 190.917 124.588 190.447L123.532 189.884C123.786 187.551 126.49 186.423 127.678 183.635C129.175 180.123 129.911 176.892 130.742 173.232C120.463 176.281 111.795 176.528 102.082 171.25C101.571 170.972 101.062 170.691 100.555 170.406C104.855 167.741 109.455 164.875 113.304 161.595C102.22 160.068 94.8359 157.096 87.424 147.904C86.0899 146.249 84.8864 144.155 84.7305 142.001L85.1838 141.089C87.4628 140.509 88.3097 141.124 90.2486 142.483C90.4007 142.608 90.5576 142.728 90.7189 142.841C91.6926 143.532 93.3638 144.608 94.5396 144.404C94.5882 142.982 93.6456 142.242 92.6521 140.884C87.5007 133.869 83.9789 127.128 85.4199 118.141C86.0976 113.913 88.2941 105.994 91.0226 102.785L91.9918 102.4C93.6024 103.337 95.2771 108.374 96.0505 110.247C104.13 129.804 123.131 145.298 145.106 136.674C148.05 131.392 147.972 127.118 148.43 121.114C142.117 122.18 142.192 125.216 138.252 126.086C134.972 123.737 136.608 116.632 138.986 113.981C142.445 110.126 148.395 104.222 153.721 103.28C158.367 102.746 163.23 104.203 167.597 104.549C168.503 104.621 175.188 103.068 176.601 102.801C176.728 104.167 174.949 106.223 174.203 107.92C170.228 117.041 170.162 127.393 174.022 136.564Z" fill="#C9CED3"/>
<path d="M730.503 204.138C729.468 204.011 729.187 204.029 728.4 203.292C728.191 199.773 728.016 166.755 728.516 165.104L729.658 164.831C739.331 164.532 749.718 164.729 759.445 164.754L759.45 172.559C752.755 172.557 745.875 172.64 739.2 172.55C739.214 175.019 739.146 178.143 739.316 180.552C744.364 180.244 752.279 180.095 757.399 180.409C757.249 182.77 757.049 185.285 757.093 187.636C751.21 187.635 745.049 187.539 739.195 187.703L739.418 196.171C744.758 195.69 754.878 195.649 760.344 196.202L760.242 202.316C764.293 197.763 770.347 188.916 774.107 183.696L760.3 164.809C764.016 164.79 769.458 164.606 773.034 164.847C775.803 168.352 778.125 171.857 780.622 175.557C782.444 172.911 786.37 166.923 788.367 164.834C792.584 164.75 796.592 164.682 800.804 164.786C797.627 169.17 789.664 179.708 787.322 183.862C790.116 187.872 798.909 200.836 801.888 203.855C797.403 203.982 793.225 204.196 788.755 203.598L780.457 192.14C777.989 196.087 775.502 200.133 772.655 203.822C759.552 204.23 746.376 203.781 733.263 204.031C732.398 204.047 731.344 204.024 730.503 204.138Z" fill="#C9CED3"/>
<path d="M730.503 204.137C729.468 204.011 729.187 204.029 728.4 203.291C728.191 199.772 728.016 166.755 728.516 165.103L729.658 164.831C730.921 168.007 730.265 198.015 730.503 204.137Z" fill="#C9CED3"/>
<path d="M335.152 46.2131C337.578 46.1329 340.604 46.2634 343.078 46.3015C343.765 67.3618 343.117 89.524 343.112 110.714L343.208 253.998C341.342 254.631 337.336 254.367 335.198 254.329C335.737 227.58 335.198 198.924 335.193 172.016L335.152 46.2131Z" fill="#C9CED3"/>
<path d="M873.301 164.374C880.215 163.927 887.711 163.874 893.459 168.085C907.869 178.639 903.331 200.974 885.35 203.995C879.262 204.923 871.683 204.324 866.281 201.109C861.869 198.511 858.687 194.251 857.443 189.283C854.475 177.062 861.34 167.245 873.301 164.374ZM880.045 195.841C882.245 195.091 883.674 194.634 885.729 193.545C890.689 186.376 891.627 176.373 881.337 172.851C880.253 172.482 879.5 172.401 878.329 172.505C862.763 177.867 868.958 197.923 880.045 195.841Z" fill="#C9CED3"/>
<path d="M579.321 98.2572C609.326 94.4733 614.534 134.447 587.075 138.236C582.168 138.899 577.314 138.678 572.815 136.518C559.182 129.972 557.9 110.735 570.381 102.271C573.398 100.228 575.939 99.4182 579.321 98.2572ZM586.093 129.862C592.244 128.279 595.98 122.048 594.484 115.875C592.992 109.703 586.817 105.875 580.623 107.284C576.541 108.213 573.272 111.27 572.072 115.284C570.872 119.298 571.926 123.647 574.831 126.666C577.732 129.685 582.036 130.906 586.093 129.862Z" fill="#C9CED3"/>
<path d="M712.056 164.797L721.389 164.688L721.36 204.04C719.324 203.978 717.162 204.235 715.112 204.169C711.152 204.041 711.405 202.977 711.269 199.86C711.138 193.125 710.919 189.537 712.45 183.007C708.966 187.126 702.66 200.397 698.234 200.228C693.929 198.749 688.6 187.952 686.059 183.591C686.647 190.234 686.491 197.285 686.472 203.98L676.153 203.844C676.153 191.109 676.4 177.409 676.002 164.749C678.917 164.709 681.949 164.799 684.873 164.844C687.852 168.382 695.504 181.92 698.768 186.881C701.164 182.591 709.355 168.142 712.056 164.797Z" fill="#C9CED3"/>
<path d="M441.181 98.6688C450.346 98.5921 466.762 96.7356 472.345 104.77C477.735 112.528 475.11 121.27 467.372 125.792C469 128.124 475.112 135.57 475.179 137.793L473.814 138.105L465.906 137.997C463.157 134.721 461.014 131.228 458.697 127.64C456.131 127.765 453.326 127.761 450.737 127.809C450.861 131.018 450.794 134.779 450.814 138.032L441.095 138.085C441.053 124.947 441.081 111.808 441.181 98.6688ZM450.851 119.602C456.084 119.557 459.143 120.135 463.793 117.513C465.515 115.568 466.979 111.362 464.239 109.523C460.051 106.712 455.323 107.222 450.564 107.388C450.748 111.457 450.844 115.529 450.851 119.602Z" fill="#C9CED3"/>
<path d="M524.236 98.6754C535.605 98.5524 556.418 95.7989 558.483 110.98C559.688 119.831 554.115 124.377 546.789 127.117C542.358 127.993 538.481 127.844 533.987 127.849L533.992 138.098L524.188 138.036C524.469 125.286 524.231 111.501 524.236 98.6754ZM534.016 119.584C538.67 119.535 543.121 119.982 547.177 117.678C552.871 106.851 540.852 107.104 533.933 107.33L534.016 119.584Z" fill="#C9CED3"/>
<path d="M469.203 164.732C480.438 164.61 501.358 161.561 503.16 176.955C504.171 185.568 499.614 190.047 492.166 192.765C488.012 193.73 483.217 193.59 478.967 193.479C478.914 196.922 479.003 200.496 479.04 203.949L469.305 204.148C469.534 191.656 469.547 177.179 469.203 164.732ZM479.034 185.071C482.857 184.9 488.799 185.089 492.054 183.461C498.113 172.318 486.739 172.912 479.378 172.752C478.614 175.251 478.932 182.21 479.034 185.071Z" fill="#C9CED3"/>
<path d="M591.758 164.747C594.872 164.618 598.331 164.759 601.475 164.82C606.527 174.085 614.204 193.392 619.12 203.983C615.511 203.979 611.896 203.924 608.286 203.82C607.208 201.315 605.886 195.806 603.292 195.642C599.133 195.808 592.501 195.946 588.488 195.526C587.278 197.942 586.078 201.306 585.078 203.884L574.277 204.037C576.726 197.304 581.011 188.835 583.892 182.061C585.816 177.532 589.455 168.757 591.758 164.747ZM591.549 188.066L596.49 188.014C597.544 188.038 600.697 188.265 601.402 187.817C600.877 185.745 597.578 177.129 596.164 176.146C594.862 179.978 592.521 184.789 591.549 188.066Z" fill="#C9CED3"/>
<path d="M432.502 164.641C442.503 164.739 452.505 164.733 462.506 164.624L462.477 172.576C455.803 172.655 449 172.596 442.314 172.602L442.517 180.331C448.29 180.019 454.4 180.163 460.206 180.203L460.092 187.78C454.772 187.644 447.612 187.431 442.37 187.805L442.505 195.74C446.459 195.309 458.433 195.538 463.069 195.432C463.115 198.261 463.061 201.22 463.054 204.061C452.936 203.998 442.817 204.002 432.699 204.073C432.805 191.521 433.003 177.1 432.502 164.641Z" fill="#C9CED3"/>
<path d="M416.864 97.8521C425.145 98.1874 428.509 99.779 434.482 105.461C433.14 107.193 430.234 109.688 428.525 111.249L428.318 111.072C424.14 107.541 418.667 105.036 413.423 107.73C399.791 114.733 408.673 136.715 423.628 129.205C425.587 126.678 424.851 120.944 424.737 117.586L430.576 117.506C431.581 117.475 432.185 117.366 433.027 117.944C434.62 121.159 433.811 130.056 433.632 134.069C430.097 136.518 426.01 138.05 421.738 138.532C391.544 142.139 386.197 101.044 416.864 97.8521Z" fill="#C9CED3"/>
<path d="M509.073 164.695L538.782 164.723L538.768 172.519C533.457 172.875 523.984 172.711 518.649 172.55C518.484 174.987 518.493 177.903 518.435 180.383C523.58 179.951 531.135 180.116 536.338 180.234L536.44 187.636L518.698 187.683C518.489 190.23 518.503 193.411 518.445 196.012L518.693 195.985C525.538 195.263 532.325 195.615 539.278 195.497L539.283 204.05L509.039 203.986C509.272 191.152 509.068 177.585 509.073 164.695Z" fill="#C9CED3"/>
<path d="M834.779 164.343L836.251 164.285C846.458 163.912 850.122 164.497 857.531 171.392C855.048 173.546 852.337 176.044 849.578 177.772C846.284 174.437 845.234 173.931 840.842 172.097C826.49 175.745 824.975 191.268 839.035 196.324C844.36 195.061 845.035 194.501 849.291 191.201C851.531 192.263 855.121 194.498 856.234 196.761C856.681 205.764 832.918 206.131 826.039 200.562C811.42 188.735 816.234 167.713 834.779 164.343Z" fill="#C9CED3"/>
<path d="M481.043 98.6079L490.299 98.6342C490.236 103.702 488.745 125.473 493.239 128.258C511.054 139.299 506.789 108.228 506.915 98.6526L516.384 98.6103L516.233 106.794C516.209 114.587 517.778 127.809 512.094 133.705C506.177 140.214 491.762 140.308 485.741 134.055C479.098 127.158 481.073 108.227 481.043 98.6079Z" fill="#C9CED3"/>
<path d="M635.353 164.404C640.668 164.112 654.869 164.797 655.987 171.252C655.496 172.982 651.566 176.263 650.089 177.661C642.16 168.501 629.708 172.489 628.872 183.399C628.605 186.709 629.669 189.988 631.826 192.51C637.039 198.574 644.079 196.23 649.306 191.643C650.696 191.555 655.127 194.679 655.059 196.122C654.831 206.996 634.085 205.488 627.745 201.066C612.222 190.241 616.182 168.503 635.353 164.404Z" fill="#C9CED3"/>
<path d="M539.506 164.688L549.65 164.796C552.337 167.625 557.628 177.453 559.838 181.351C562.243 176.717 566.849 169.032 569.803 164.777C572.742 164.654 576.687 164.775 579.704 164.789C577.003 169.738 573.612 175.184 570.697 180.071C563.744 191.005 564.488 190.998 564.653 204.052L554.635 204.054C555.043 183.625 549.558 181.541 539.506 164.688Z" fill="#C9CED3"/>
<path d="M394.438 164.775C404.803 164.319 418.428 164.718 429.06 164.623L428.985 172.909C424.921 172.794 420.854 172.775 416.789 172.851C416.677 179.35 416.731 186.054 416.704 192.57L416.771 204.043C413.271 204.015 410.013 204.113 406.521 204.24L406.446 172.524C402.177 172.937 398.666 172.749 394.385 172.6L394.438 164.775Z" fill="#C9CED3"/>
<path d="M801.732 164.762L813.888 164.686C813.509 173.614 814.078 183.409 813.878 192.411C813.801 195.969 814.082 200.586 813.655 203.999C809.729 204.003 805.804 203.943 801.883 203.819C801.786 190.852 802.004 177.704 801.732 164.762Z" fill="#C9CED3"/>
<path d="M161.006 230.555C175.916 230.136 188.046 232.159 200.773 240.859L200.677 241.523L199.567 241.852C189.053 245.704 169.744 245.23 162.964 235.038C162.134 233.789 161.049 232.077 161.006 230.555Z" fill="#C9CED3"/>
<path d="M59.635 151.429C44.5982 147.914 40.6936 118.95 46.6745 116.692C49.9741 118.207 54.1611 125.408 55.3689 128.55C55.466 128.804 55.5549 129.059 55.6366 129.317C58.488 134.476 59.7094 138.882 61.3515 144.42C61.1426 146.264 61.0085 147.483 62.0943 149.158C62.0686 150.782 62.3441 150.61 61.4788 151.516L59.635 151.429Z" fill="#C9CED3"/>
<path d="M51.8125 126.667C53.6198 128.046 54.7951 131.134 55.6079 131.413L55.6365 129.317C58.4879 134.476 59.7093 138.882 61.3515 144.419C61.1426 146.264 61.0085 147.483 62.0943 149.158C62.0686 150.782 62.3441 150.61 61.4788 151.516L59.635 151.429C57.1548 139.998 56.9925 137.87 51.8125 126.667Z" fill="#C9CED3"/>
<path d="M46.6738 116.692C49.9735 118.207 54.1604 125.408 55.3682 128.55C55.4654 128.804 55.5543 129.059 55.6359 129.317L55.6073 131.413C54.7944 131.134 53.6192 128.046 51.8119 126.667C50.3947 124.689 47.5143 118.964 46.6738 116.692Z" fill="#C9CED3"/>
<path d="M68.7093 177.375C55.9162 175.94 49.0425 166.796 45.7343 154.763C45.2358 152.95 44.1212 149.65 44.9027 148.123L46.1536 148.145C52.87 148.612 68.6826 168.831 70.6269 175.73L70.4001 176.834L68.7093 177.375Z" fill="#C9CED3"/>
<path d="M46.1523 148.145C52.8687 148.612 68.6813 168.831 70.6257 175.73L70.3988 176.834L68.708 177.375C65.5399 168.755 59.4406 160.534 52.6962 154.373C51.2708 153.071 46.4945 149.594 46.1523 148.145Z" fill="#C9CED3"/>
<path d="M51.5605 177.841C51.9954 177.821 52.4302 177.811 52.865 177.812C64.7287 177.871 78.3663 190.365 86.1052 198.185L85.9983 198.803C69.2976 204.827 58.9992 190.247 51.5605 177.841Z" fill="#C9CED3"/>
<path d="M57.4776 123.978C49.2669 117.135 48.5459 106.669 50.3023 96.7244C50.7235 94.3368 52.4098 89.4871 54.4776 88.1128C59.3972 90.8615 60.5884 99.9319 61.118 105.093C61.2749 106.811 61.4498 114.833 61.8803 115.626C60.9494 116.514 60.9266 120.433 61.4328 121.541C60.7706 123.168 60.9334 123.553 59.6119 124.407L57.4776 123.978Z" fill="#C9CED3"/>
<path d="M57.7035 102.423C58.9127 104.021 59.1668 104.54 61.117 105.093C61.2739 106.811 61.4488 114.832 61.8792 115.626C60.9484 116.513 60.9255 120.433 61.4318 121.541C60.7696 123.168 60.9323 123.553 59.6109 124.407L57.4766 123.978C58.4089 115.774 59.1027 110.597 57.7035 102.423Z" fill="#C9CED3"/>
<path d="M54.4766 88.1128C59.3962 90.8615 60.5875 99.9319 61.117 105.093C59.1669 104.54 58.9128 104.021 57.7035 102.423C57.9489 98.7461 55.0727 92.421 54.4766 88.1128Z" fill="#C9CED3"/>
<path d="M151.438 230.554C153.142 230.409 156.574 230.502 158.41 230.492C153.507 243.481 139.243 244.383 127.172 243.785C123.363 243.507 121.157 243.093 117.432 242.352C129.355 235.049 137.171 231.894 151.438 230.554Z" fill="#C9CED3"/>
<path d="M104.777 223.715C110.779 222.866 125.79 223.028 130.124 227.478C131.1 231.637 122.701 233.413 119.558 234.192C109.345 235.709 99.9494 233.014 91.3418 227.695C96.7992 224.92 98.7921 224.542 104.777 223.715Z" fill="#C9CED3"/>
<path d="M74.8015 205.353C89.6405 205.303 95.2602 208.735 107.359 216.104L100.425 219.003C88.1101 222.642 76.466 214.307 68.3379 205.955C70.4406 205.664 72.676 205.521 74.8015 205.353Z" fill="#C9CED3"/>
<path d="M70.2733 62.5669C71.1979 62.8667 72.2419 62.9868 72.5291 63.951C73.4969 67.207 72.8881 73.4232 72.738 76.7945C71.9679 78.3856 71.6322 79.5651 72.1127 81.3627C71.5098 82.3619 70.3477 88.7015 69.7724 90.714C67.916 93.0797 67.264 96.067 65.4523 98.2481L63.0489 97.3121C60.3909 93.1167 59.5664 89.3697 59.8185 84.3413C60.2402 75.9737 64.0074 68.127 70.2733 62.5669Z" fill="#C9CED3"/>
<path d="M70.2733 62.5669C71.1978 62.8667 72.2419 62.9868 72.529 63.951C73.4968 67.207 72.8881 73.4232 72.7379 76.7945C71.9679 78.3856 71.6322 79.5651 72.1127 81.3627C71.5097 82.3619 70.3476 88.7015 69.7724 90.714C67.916 93.0797 67.264 96.067 65.4523 98.2481L63.0488 97.3121C68.2507 87.0147 71.4417 74.1104 70.2733 62.5669Z" fill="#C9CED3"/>
<path d="M203.543 223.738C210.606 222.846 221.399 223.862 228.251 226.064C222.645 230.874 219.59 231.733 212.654 233.946C203.29 235.249 194.443 235.271 187.91 227.464C193.735 225.636 197.474 224.437 203.543 223.738Z" fill="#C9CED3"/>
<path d="M83.418 164.102C84.2726 164.179 85.578 164.069 86.1178 164.967C89.4191 170.458 94.3212 191.945 89.3797 196.424C89.0479 196.509 88.0495 196.791 87.773 196.808C76.7809 188.211 75.1048 175.37 83.418 164.102Z" fill="#C9CED3"/>
<path d="M83.418 164.102C84.2726 164.179 85.578 164.069 86.1178 164.967C89.4191 170.458 94.3212 191.945 89.3797 196.424C89.0479 196.509 88.0495 196.791 87.773 196.808C90.8168 183.502 87.4286 176.248 83.418 164.102Z" fill="#C9CED3"/>
<path d="M130.869 204.755C140.145 205.323 155.45 217.938 159.286 226.27C158.548 226.532 157.698 226.777 156.919 226.891C150.922 227.717 144.843 226.101 140.047 222.404C133.864 217.709 131.892 212.058 130.869 204.755Z" fill="#C9CED3"/>
<path d="M96.0804 182.153C102.759 185.832 112.809 205.036 109.179 211.682L108.263 212.281C108.205 212.292 108.147 212.304 108.088 212.316C94.4893 211.214 90.0371 190.631 96.0804 182.153Z" fill="#C9CED3"/>
<path d="M96.0801 182.153C102.758 185.832 112.809 205.036 109.179 211.682L108.263 212.281C108.992 213.562 106.743 202.271 106.66 201.904C105.181 195.354 97.2597 187.395 96.0801 182.153Z" fill="#C9CED3"/>
<path d="M274.15 116.993C274.341 117.061 274.753 117.445 274.937 117.6C275.766 130.578 273.275 147.779 258.938 152.092C258.802 151.967 258.385 151.321 258.252 151.126C259.803 140.238 264.421 123.482 274.15 116.993Z" fill="#C9CED3"/>
<path d="M112.391 195.594C118.381 197.586 136.823 217.531 132.409 223.484C119.667 223.013 106.85 207.296 112.391 195.594Z" fill="#C9CED3"/>
<path d="M75.3298 121.039L77.1322 121.238C79.355 125.303 72.3525 151.526 64.3653 150.89L64.1059 150.411L63.074 149.158H62.095C61.0092 147.483 61.1432 146.264 61.3522 144.42C62.3676 141.014 61.8987 137.648 63.7323 133.12C66.0721 127.342 69.6367 123.66 75.3298 121.039Z" fill="#C9CED3"/>
<path d="M75.3293 121.039L77.1318 121.238C79.3545 125.303 72.3521 151.526 64.3649 150.89L64.1055 150.411C64.7672 149.742 65.3988 149.043 65.9983 148.317C70.7105 142.576 76.0659 128.641 75.3293 121.039Z" fill="#C9CED3"/>
<path d="M273.918 148.646L274.835 149.206C275.004 150.182 274.993 151.678 274.553 152.588C268.66 164.802 265.522 176.582 250.083 177.581L249.309 177.139C249.38 176.855 249.461 176.572 249.551 176.294C250.019 174.864 251.993 171.405 252.775 169.979C258.103 160.257 263.926 153.74 273.918 148.646Z" fill="#C9CED3"/>
<path d="M76.6354 143.93C77.9749 143.229 77.4434 143.279 78.8659 143.486C80.5862 145.822 79.8604 160.16 79.3255 163.612C78.7299 167.46 77.5007 173.728 73.4478 175.309C64.4496 171.148 67.1056 151.93 73.5673 146.613C74.6036 145.76 75.5768 144.786 76.6354 143.93Z" fill="#C9CED3"/>
<path d="M76.6368 143.93C77.9763 143.229 77.4448 143.279 78.8673 143.486C80.5877 145.822 79.8618 160.16 79.3269 163.612C78.7313 167.46 77.5021 173.728 73.4492 175.309C73.4881 174.474 74.1411 172.831 74.5035 172.068C77.0172 166.777 78.7308 148.711 76.6368 143.93Z" fill="#C9CED3"/>
<path d="M265.319 177.87L265.799 177.944L266.174 178.567C262.698 190.389 248.571 201.631 235.741 199.861C235.002 199.465 234.846 199.454 234.5 198.738C237.748 190.53 257.169 180.398 265.319 177.87Z" fill="#C9CED3"/>
<path d="M249.933 204.921L250.275 204.81L250.358 205.411C242.409 215.188 229.203 222.019 216.533 218.492C215.662 218.141 214.945 217.798 214.104 217.391L213.885 216.485C214.046 216.113 214.471 215.332 214.764 215.119C224.48 208.05 238.724 204.958 249.933 204.921Z" fill="#C9CED3"/>
<path d="M79.9643 98.8653C81.7453 98.3404 81.1191 98.2685 82.7024 98.8662C83.8894 102.739 69.0717 128.207 61.8818 124.381L61.4333 121.542C60.9271 120.434 60.9499 116.514 61.8808 115.626C66.7188 106.208 69.3394 102.791 79.9643 98.8653Z" fill="#C9CED3"/>
<path d="M79.9633 98.8653C81.7444 98.3404 81.1182 98.2685 82.7015 98.8662C83.8884 102.739 69.0708 128.207 61.8809 124.381C71.2513 118.627 76.1602 108.779 79.9633 98.8653Z" fill="#C9CED3"/>
<path d="M93.787 56.5557C94.8568 56.0434 95.144 55.8146 96.3056 56.075C97.4468 57.9223 93.1335 65.0054 91.7664 66.2505C90.441 68.382 84.9078 76.4206 82.6302 77.464C80.2447 79.7827 78.6711 81.4753 75.5248 82.597C74.6099 82.5396 73.9472 82.5907 73.2408 81.9919L72.1137 81.3626C71.6332 79.5649 71.9689 78.3855 72.739 76.7944C73.4055 76.0367 74.3573 73.8926 74.8276 72.9085C78.9713 64.2424 84.8354 59.7291 93.787 56.5557Z" fill="#C9CED3"/>
<path d="M93.7869 56.5557C94.8567 56.0434 95.1438 55.8146 96.3055 56.075C97.4467 57.9223 93.1334 65.0054 91.7663 66.2505C89.6495 67.0227 88.6341 67.4912 86.6484 68.5575C89.0446 65.0793 92.2366 60.411 93.7869 56.5557Z" fill="#C9CED3"/>
<path d="M86.648 68.5574C88.6337 67.4912 89.6491 67.0227 91.7659 66.2505C90.4405 68.382 84.9073 76.4206 82.6297 77.464C81.5754 77.2123 80.1951 77.447 79.0879 77.567C82.0865 74.7124 84.1887 71.8495 86.648 68.5574Z" fill="#C9CED3"/>
<path d="M79.0878 77.567C80.195 77.447 81.5753 77.2122 82.6296 77.464C80.2441 79.7826 78.6705 81.4753 75.5242 82.5969C74.6093 82.5396 73.9466 82.5906 73.2402 81.9919C75.9405 80.8046 76.9715 79.6213 79.0878 77.567Z" fill="#C9CED3"/>
<path d="M186.551 206.088L187.314 206.276C187.443 206.708 187.581 207.275 187.585 207.721C187.698 220.962 173.285 226.508 162.394 227.302C161.58 227.097 161.86 227.209 161.223 226.493C164.676 216.405 176.668 208.952 186.551 206.088Z" fill="#C9CED3"/>
<path d="M223.128 182.59L223.999 182.52C226.069 185.609 226.079 193.207 225.299 196.784C224.075 202.399 221.445 206.825 216.656 209.988C216.51 210.085 216.36 210.178 216.207 210.267C215.166 211.155 213.698 211.98 212.509 212.704C211.987 212.682 211.239 212.779 211.055 212.344C207.639 204.262 217.664 187.016 223.128 182.59Z" fill="#C9CED3"/>
<path d="M223.127 182.59L223.999 182.52C226.069 185.609 226.078 193.207 225.299 196.784C224.074 202.399 221.444 206.825 216.656 209.988C216.509 210.085 216.36 210.178 216.207 210.267C216.753 208.025 218.623 206.981 220.075 205.064C225.044 198.503 223.987 190.109 223.127 182.59Z" fill="#C9CED3"/>
<path d="M205.474 196.553L206.628 197.052C208.568 199.664 207.376 207.166 206.002 210.071C202.307 217.882 195.663 220.478 188.139 223.234C187.819 223.359 187.318 223.308 186.941 223.305L186.635 222.37C189.124 210.789 196.727 203.91 205.474 196.553Z" fill="#C9CED3"/>
<path d="M263.532 88.2412C267.674 90.797 269.409 99.4023 269.338 103.864C269.216 111.474 268.062 117.433 262.693 122.974C262.415 123.304 261.465 123.941 261.067 124.226L260.175 123.948C259.002 121.633 259.153 118.426 259.019 115.859C258.492 105.801 259.988 97.6119 263.532 88.2412Z" fill="#C9CED3"/>
<path d="M230.195 196.301C228.299 188.684 228.871 182.323 230.872 174.811C231.437 172.687 233.085 165.921 234.477 164.437L235.678 164.69C238.696 167.108 240.209 172.193 240.629 175.899C241.277 182.125 239.46 188.357 235.568 193.259C234.116 195.052 233.355 195.739 231.23 196.624C230.948 196.549 230.417 196.439 230.195 196.301Z" fill="#C9CED3"/>
<path d="M235.678 164.69C238.696 167.109 240.209 172.193 240.629 175.899C241.277 182.126 239.46 188.357 235.568 193.259C234.116 195.052 233.355 195.739 231.23 196.624C230.948 196.549 230.417 196.439 230.195 196.301C230.667 195.587 233.213 193.589 234.139 192.405C238.915 186.518 240.224 179.207 238.114 171.953C237.391 169.463 235.846 167.395 235.678 164.69Z" fill="#C9CED3"/>
<path d="M247.469 61.8647C257.37 68.3978 261.984 85.1408 256.841 96.0856C255.993 97.5304 256.414 97.3273 255.095 97.7044C248.79 93.9886 247.001 69.0791 247.469 61.8647Z" fill="#C9CED3"/>
<path d="M69.7732 90.7139C75.664 83.6536 80.9427 79.3075 90.5628 79.1729L93.1023 79.4921L93.539 80.1575C91.4728 85.3152 78.8983 96.5588 73.3446 98.2146C69.524 99.6924 69.2164 99.7075 65.4531 98.2481C67.2648 96.067 67.9168 93.0797 69.7732 90.7139Z" fill="#C9CED3"/>
<path d="M90.5624 79.1729L93.1019 79.4921L93.5386 80.1575C91.4724 85.3152 78.8979 96.5588 73.3442 98.2146C73.2869 97.9031 73.2208 97.5454 73.1465 97.142C75.5932 95.0926 80.0765 91.422 82.2599 89.3969C85.9867 85.9401 87.9515 83.222 90.5624 79.1729Z" fill="#C9CED3"/>
<path d="M241.333 143.952C252.591 148.119 253.295 164.037 248.396 173.343C247.336 174.968 247.746 174.855 246.258 175.494C239.598 173.499 240.312 149.783 241.333 143.952Z" fill="#C9CED3"/>
<path d="M242.199 120.926C255.692 124.619 258.56 138.389 256.064 150.527L255.61 150.934C247.608 151.738 243.076 126.448 242.199 120.926Z" fill="#C9CED3"/>
<path d="M237.082 99.6226C252.165 101.754 257.046 110.793 257.287 125.052C249.258 124.357 240.154 106.082 237.082 99.6226Z" fill="#C9CED3"/>
<path d="M222.596 56.5825C235.956 61.071 245.711 67.7222 246.707 83.0097C239.629 82.7925 225.784 62.3414 222.596 56.5825Z" fill="#C9CED3"/>
<path d="M226.059 79.5278C240.798 79.3529 247.434 85.8816 252.244 98.934C239.068 96.4682 234.454 89.2815 226.059 79.5278Z" fill="#C9CED3"/>
<path d="M747.703 153.8C750.774 153.652 753.684 153.892 756.745 154.089C753.159 157.073 750.074 159.633 746.275 162.322L737.039 162.456C740.629 159.024 742.49 154.167 747.703 153.8Z" fill="#C9CED3"/>
<path d="M92.6535 140.884C93.647 142.242 94.5895 142.981 94.5409 144.403C93.3652 144.607 91.6939 143.531 90.7203 142.841C90.559 142.728 90.4021 142.608 90.25 142.482L92.6535 140.884Z" fill="#C9CED3" fill-opacity="0.0117647"/>
<circle cx="904.5" cy="218.5" r="8.5" stroke="#C9CED3" stroke-width="1.8"/>
<path d="M901.759 223V214.273H905.202C905.861 214.273 906.423 214.391 906.889 214.626C907.358 214.859 907.714 215.19 907.959 215.619C908.206 216.045 908.33 216.547 908.33 217.124C908.33 217.703 908.205 218.202 907.955 218.619C907.705 219.034 907.342 219.352 906.868 219.574C906.396 219.795 905.825 219.906 905.155 219.906H902.849V218.423H904.857C905.209 218.423 905.501 218.375 905.734 218.278C905.967 218.182 906.141 218.037 906.254 217.844C906.371 217.651 906.429 217.411 906.429 217.124C906.429 216.834 906.371 216.589 906.254 216.391C906.141 216.192 905.966 216.041 905.73 215.939C905.497 215.834 905.203 215.781 904.848 215.781H903.604V223H901.759ZM906.472 219.028L908.641 223H906.604L904.482 219.028H906.472Z" fill="white"/>
</svg>
